<svg xmlns="http://www.w3.org/2000/svg" version="1.1" xmlns:xlink="http://www.w3.org/1999/xlink" xmlns:svgjs="http://svgjs.dev/svgjs" width="1500" height="166" viewBox="0 0 1500 166"><g transform="matrix(1,0,0,1,-0.9090909090909918,-0.15807090934274015)"><svg viewBox="0 0 396 44" data-background-color="#ffffff" preserveAspectRatio="xMidYMid meet" height="166" width="1500" xmlns="http://www.w3.org/2000/svg" xmlns:xlink="http://www.w3.org/1999/xlink"><g id="tight-bounds" transform="matrix(1,0,0,1,0.2400000000000091,0.04189831331976279)"><svg viewBox="0 0 395.52 43.91620337336046" height="43.91620337336046" width="395.52"><g><svg viewBox="0 0 475.1592948420715 52.758880023834344" height="43.91620337336046" width="395.52"><g><rect width="4.734179350958772" height="52.758880023834344" x="62.511975828917016" y="0" fill="#111111" opacity="1" stroke-width="0" stroke="transparent" fill-opacity="1" class="rect-yte-0" data-fill-palette-color="primary" rx="1%" id="yte-0" data-palette-color="#111111"></rect></g><g transform="matrix(1,0,0,1,79.63929484207152,0.13124099508416265)"><svg viewBox="0 0 395.52 52.49639803366602" height="52.49639803366602" width="395.52"><g id="textblocktransform"><svg viewBox="0 0 395.52 52.49639803366602" height="52.49639803366602" width="395.52" id="textblock"><g><svg viewBox="0 0 395.52 52.49639803366602" height="52.49639803366602" width="395.52"><g transform="matrix(1,0,0,1,0,0)"><svg width="395.52" viewBox="2.66 -37.5 327.75 43.51" height="52.49639803366602" data-palette-color="#111111"><path d="M31.27-18.9L31.27-16.63Q31.27-11.47 29.64-7.75 28-4.03 25.05-1.93L25.05-1.93 31.4 3.05 28.2 6.01 20.7 0.05Q18.95 0.49 16.99 0.49L16.99 0.49Q12.79 0.49 9.55-1.57 6.3-3.64 4.5-7.46 2.71-11.28 2.66-16.31L2.66-16.31 2.66-18.87Q2.66-24 4.44-27.93 6.23-31.86 9.48-33.95 12.74-36.04 16.94-36.04L16.94-36.04Q21.24-36.04 24.5-33.96 27.76-31.88 29.52-27.99 31.27-24.1 31.27-18.9L31.27-18.9ZM26.59-16.28L26.59-18.92Q26.59-25.2 24.08-28.6 21.58-32.01 16.94-32.01L16.94-32.01Q12.52-32.01 9.97-28.63 7.42-25.24 7.35-19.24L7.35-19.24 7.35-16.63Q7.35-10.52 9.9-7.01 12.45-3.49 16.99-3.49 21.53-3.49 24.02-6.8 26.51-10.11 26.59-16.28L26.59-16.28ZM54.2 0L54.1-2.61Q51.46 0.49 46.36 0.49L46.36 0.49Q42.14 0.49 39.93-1.97 37.72-4.42 37.69-9.23L37.69-9.23 37.69-26.42 42.21-26.42 42.21-9.35Q42.21-3.34 47.09-3.34L47.09-3.34Q52.27-3.34 53.98-7.2L53.98-7.2 53.98-26.42 58.49-26.42 58.49 0 54.2 0ZM70.26-26.42L70.26 0 65.74 0 65.74-26.42 70.26-26.42ZM65.38-33.42L65.38-33.42Q65.38-34.52 66.05-35.28 66.72-36.04 68.04-36.04 69.36-36.04 70.04-35.28 70.72-34.52 70.72-33.42 70.72-32.32 70.04-31.59 69.36-30.86 68.04-30.86 66.72-30.86 66.05-31.59 65.38-32.32 65.38-33.42ZM88.08-3.2L88.08-3.2Q90.5-3.2 92.3-4.66 94.11-6.13 94.3-8.33L94.3-8.33 98.58-8.33Q98.45-6.05 97.01-4 95.57-1.95 93.17-0.73 90.76 0.49 88.08 0.49L88.08 0.49Q82.68 0.49 79.5-3.11 76.31-6.71 76.31-12.96L76.31-12.96 76.31-13.72Q76.31-17.58 77.73-20.58 79.14-23.58 81.79-25.24 84.44-26.9 88.05-26.9L88.05-26.9Q92.5-26.9 95.44-24.24 98.38-21.58 98.58-17.33L98.58-17.33 94.3-17.33Q94.11-19.9 92.36-21.55 90.62-23.19 88.05-23.19L88.05-23.19Q84.61-23.19 82.72-20.72 80.83-18.24 80.83-13.55L80.83-13.55 80.83-12.7Q80.83-8.13 82.71-5.66 84.59-3.2 88.08-3.2ZM120.23 0L111.03-12.23 108.19-9.28 108.19 0 103.68 0 103.68-37.5 108.19-37.5 108.19-14.82 110.61-17.72 118.84-26.42 124.33-26.42 114.05-15.38 125.53 0 120.23 0ZM154.26-35.55L154.26-31.69 142.83-31.69 142.83 0 138.17 0 138.17-31.69 126.77-31.69 126.77-35.55 154.26-35.55ZM169.76-26.56L169.76-22.36Q168.74-22.53 167.54-22.53L167.54-22.53Q163.1-22.53 161.51-18.75L161.51-18.75 161.51 0 156.99 0 156.99-26.42 161.39-26.42 161.46-23.36Q163.68-26.9 167.76-26.9L167.76-26.9Q169.08-26.9 169.76-26.56L169.76-26.56ZM193.98 0L189.24 0Q188.85-0.78 188.61-2.78L188.61-2.78Q185.46 0.49 181.09 0.49L181.09 0.49Q177.18 0.49 174.68-1.72 172.17-3.93 172.17-7.32L172.17-7.32Q172.17-11.45 175.31-13.73 178.45-16.02 184.14-16.02L184.14-16.02 188.53-16.02 188.53-18.09Q188.53-20.46 187.12-21.86 185.7-23.27 182.94-23.27L182.94-23.27Q180.52-23.27 178.89-22.05 177.25-20.83 177.25-19.09L177.25-19.09 172.71-19.09Q172.71-21.07 174.12-22.91 175.52-24.76 177.92-25.83 180.33-26.9 183.21-26.9L183.21-26.9Q187.78-26.9 190.36-24.62 192.95-22.34 193.05-18.33L193.05-18.33 193.05-6.18Q193.05-2.54 193.98-0.39L193.98-0.39 193.98 0ZM181.75-3.44L181.75-3.44Q183.87-3.44 185.77-4.54 187.68-5.64 188.53-7.4L188.53-7.4 188.53-12.82 184.99-12.82Q176.69-12.82 176.69-7.96L176.69-7.96Q176.69-5.83 178.11-4.64 179.52-3.44 181.75-3.44ZM200.13-26.42L204.4-26.42 204.55-23.1Q207.57-26.9 212.46-26.9L212.46-26.9Q220.83-26.9 220.9-17.46L220.9-17.46 220.9 0 216.39 0 216.39-17.48Q216.36-20.34 215.08-21.7 213.8-23.07 211.09-23.07L211.09-23.07Q208.89-23.07 207.23-21.9 205.57-20.73 204.64-18.82L204.64-18.82 204.64 0 200.13 0 200.13-26.42ZM243.09-7.01L243.09-7.01Q243.09-8.84 241.71-9.85 240.33-10.86 236.9-11.6 233.47-12.33 231.46-13.35 229.45-14.38 228.48-15.8 227.52-17.21 227.52-19.17L227.52-19.17Q227.52-22.41 230.26-24.66 233.01-26.9 237.28-26.9L237.28-26.9Q241.77-26.9 244.57-24.58 247.37-22.27 247.37-18.65L247.37-18.65 242.82-18.65Q242.82-20.51 241.25-21.85 239.67-23.19 237.28-23.19L237.28-23.19Q234.82-23.19 233.42-22.12 232.03-21.04 232.03-19.31L232.03-19.31Q232.03-17.68 233.33-16.85 234.62-16.02 238-15.26 241.38-14.5 243.48-13.45 245.58-12.4 246.6-10.93 247.61-9.45 247.61-7.32L247.61-7.32Q247.61-3.78 244.78-1.65 241.95 0.49 237.43 0.49L237.43 0.49Q234.25 0.49 231.81-0.63 229.37-1.76 227.99-3.77 226.61-5.79 226.61-8.13L226.61-8.13 231.13-8.13Q231.25-5.86 232.95-4.53 234.65-3.2 237.43-3.2L237.43-3.2Q239.99-3.2 241.54-4.24 243.09-5.27 243.09-7.01ZM258.4-37.5L258.4 0 253.88 0 253.88-37.5 258.4-37.5ZM286.67 0L281.93 0Q281.54-0.78 281.3-2.78L281.3-2.78Q278.15 0.49 273.78 0.49L273.78 0.49Q269.87 0.49 267.37-1.72 264.87-3.93 264.87-7.32L264.87-7.32Q264.87-11.45 268-13.73 271.14-16.02 276.83-16.02L276.83-16.02 281.22-16.02 281.22-18.09Q281.22-20.46 279.81-21.86 278.39-23.27 275.63-23.27L275.63-23.27Q273.21-23.27 271.58-22.05 269.94-20.83 269.94-19.09L269.94-19.09 265.4-19.09Q265.4-21.07 266.81-22.91 268.21-24.76 270.61-25.83 273.02-26.9 275.9-26.9L275.9-26.9Q280.47-26.9 283.05-24.62 285.64-22.34 285.74-18.33L285.74-18.33 285.74-6.18Q285.74-2.54 286.67-0.39L286.67-0.39 286.67 0ZM274.44-3.44L274.44-3.44Q276.56-3.44 278.46-4.54 280.37-5.64 281.22-7.4L281.22-7.4 281.22-12.82 277.68-12.82Q269.38-12.82 269.38-7.96L269.38-7.96Q269.38-5.83 270.8-4.64 272.21-3.44 274.44-3.44ZM294.43-32.81L298.94-32.81 298.94-26.42 303.88-26.42 303.88-22.92 298.94-22.92 298.94-6.54Q298.94-4.96 299.6-4.16 300.26-3.37 301.85-3.37L301.85-3.37Q302.63-3.37 304-3.66L304-3.66 304 0Q302.22 0.49 300.53 0.49L300.53 0.49Q297.5 0.49 295.97-1.34 294.43-3.17 294.43-6.54L294.43-6.54 294.43-22.92 289.62-22.92 289.62-26.42 294.43-26.42 294.43-32.81ZM320.11 0.49L320.11 0.49Q314.74 0.49 311.37-3.04 308-6.57 308-12.48L308-12.48 308-13.31Q308-17.24 309.5-20.32 311-23.41 313.7-25.16 316.4-26.9 319.55-26.9L319.55-26.9Q324.7-26.9 327.56-23.51 330.41-20.12 330.41-13.79L330.41-13.79 330.41-11.91 312.52-11.91Q312.61-8.01 314.8-5.6 316.98-3.2 320.35-3.2L320.35-3.2Q322.75-3.2 324.41-4.17 326.07-5.15 327.31-6.76L327.31-6.76 330.07-4.61Q326.75 0.49 320.11 0.49ZM319.55-23.19L319.55-23.19Q316.81-23.19 314.96-21.2 313.1-19.21 312.66-15.63L312.66-15.63 325.9-15.63 325.9-15.97Q325.7-19.41 324.04-21.3 322.38-23.19 319.55-23.19Z" opacity="1" transform="matrix(1,0,0,1,0,0)" fill="#111111" class="wordmark-text-0" data-fill-palette-color="primary" id="text-0"></path></svg></g></svg></g></svg></g></svg></g><g transform="matrix(1,0,0,1,0,0.1312409950841662)"><svg viewBox="0 0 50.11883616672128 52.49639803366601" height="52.49639803366601" width="50.11883616672128"><g><svg xmlns="http://www.w3.org/2000/svg" xml:space="preserve" version="1.0" viewBox="0 0 95.471 100" id="icon-0" width="50.11883616672128" height="52.49639803366601" x="0" y="0" class="icon-icon-0" data-fill-palette-color="accent"><path d="M47.735 0c-0.083 2.825-1.738 13.412-19.799 30.934C10.554 47.797 2.439 49.824 0 50c2.439 0.178 10.554 2.204 27.936 19.066C45.997 86.589 47.652 97.177 47.735 100c0.083-2.823 1.739-13.411 19.798-30.934C84.917 52.204 93.031 50.178 95.471 50c-2.439-0.176-10.554-2.203-27.938-19.066C49.475 13.412 47.819 2.825 47.735 0" fill="#111111" data-fill-palette-color="accent"></path></svg></g></svg></g></svg></g><defs></defs></svg><rect width="395.52" height="43.91620337336046" fill="none" stroke="none" visibility="hidden"></rect></g></svg></g></svg>